{"accessors":[{"bufferView":0,"byteOffset":0,"componentType":5126,"count":1152,"max":[77.4757995605469,33.0,57.6643028259277],"min":[-67.0502014160156,-1.0,-81.1557006835938],"normalized":false,"type":"VEC3"},{"bufferView":1,"byteOffset":0,"componentType":5126,"count":1152,"max":[1.0,0.342025697231293,1.0,1.0],"min":[-1.0,-1.0,-1.0,-1.0],"normalized":false,"type":"VEC4"},{"bufferView":2,"byteOffset":0,"componentType":5126,"count":1152,"max":[1.0,1.0,1.0],"min":[-1.0,-1.0,-1.0],"normalized":false,"type":"VEC3"},{"bufferView":3,"byteOffset":0,"componentType":5126,"count":1152,"max":[1.0,1.0],"min":[0.0,0.0],"normalized":false,"type":"VEC2"},{"bufferView":4,"byteOffset":0,"componentType":5123,"count":1152,"max":[1151.0],"min":[0.0],"normalized":false,"type":"SCALAR"}],"asset":{"generator":"Godot Engine v4.4.stable.official@4c311cbee68c0b66ff8ebb8b0defdd9979dd2a41","version":"2.0"},"bufferViews":[{"buffer":0,"byteLength":13824,"byteOffset":0,"byteStride":12,"target":34962},{"buffer":0,"byteLength":18432,"byteOffset":13824,"byteStride":16,"target":34962},{"buffer":0,"byteLength":13824,"byteOffset":32256,"byteStride":12,"target":34962},{"buffer":0,"byteLength":9216,"byteOffset":46080,"byteStride":8,"target":34962},{"buffer":0,"byteLength":2304,"byteOffset":55296,"target":34963}],"buffers":[{"byteLength":57600,"uri":"research_lab_outside0.bin"}],"extensionsUsed":["GODOT_single_root"],"materials":[{}],"meshes":[{"extras":{"targetNames":[]},"primitives":[{"attributes":{"NORMAL":2,"POSITION":0,"TANGENT":1,"TEXCOORD_0":3},"indices":4,"material":0,"mode":4}]}],"nodes":[{"children":[1,2,3,4,5,6,7,8,9,10,11,12,13,14,15,16,17,18],"mesh":0,"name":"ResearchLabOutside2"},{"name":"fence2","translation":[-2.12782001495361,3.51256990432739,-37.2708015441895]},{"name":"fence3","rotation":[0.0,0.70710676908493,0.0,0.70710676908493],"translation":[-33.1357002258301,3.64776992797852,-7.3439998626709]},{"name":"fence4","rotation":[0.0,-0.70710676908493,0.0,0.70710676908493],"translation":[28.8616008758545,3.63385009765625,-7.34017992019653]},{"name":"fence","translation":[-2.29765009880066,3.67870998382568,22.5128002166748]},{"name":"Floor","translation":[5.21280002593994,0.0,-11.7456998825073]},{"name":"Building2","translation":[4.5221700668335,13.2150001525879,-15.5239000320435]},{"name":"Building1","translation":[-6.88926982879639,12.567099571228,-4.15217018127441]},{"name":"Building3","translation":[10.388500213623,14.0,3.63319993019104]},{"name":"chimney","translation":[-11.0,29.0,-7.0]},{"name":"Dumpster","translation":[-21.3684997558594,1.89128005504608,-19.4134998321533]},{"name":"CardboardBox","rotation":[0.0,-0.0805643573403358,0.0,0.996749401092529],"translation":[-18.1140995025635,1.19949996471405,-19.1224002838135]},{"name":"CustodianRoom","translation":[-16.5832004547119,6.0,-7.25684022903442]},{"name":"CSGBox3D","translation":[-11.917200088501,1.60313999652863,-2.95793008804321]},{"name":"CSGBox3D2","rotation":[0.0,-0.70710676908493,0.0,0.70710676908493],"translation":[-16.2220001220703,2.64871001243591,0.698557019233704]},{"name":"CSGBox3D5","translation":[-21.0718994140625,5.4452600479126,-4.1496901512146]},{"name":"CSGBox3D4","translation":[-18.6926002502441,7.77451992034912,-14.9981002807617]},{"name":"CSGBox3D3","rotation":[0.173648223280907,0.0,0.0,0.984807729721069],"translation":[-21.7831993103027,7.10010004043579,-9.74703025817871]},{"name":"CSGCylinder3D","rotation":[0.0,0.0,0.70710676908493,0.70710676908493],"translation":[-33.1474990844727,2.75446009635925,-27.5921001434326]}],"scene":0,"scenes":[{"nodes":[0]}]}